<!DOCTYPE svg PUBLIC "-//W3C//DTD SVG 1.1//EN" "http://www.w3.org/Graphics/SVG/1.1/DTD/svg11.dtd">
<!-- Uploaded to: SVG Repo, www.svgrepo.com, Transformed by: SVG Repo Mixer Tools -->
<svg fill="#2C3A4C" width="800px" height="800px" viewBox="0 0 24 24" xmlns="http://www.w3.org/2000/svg">
<g id="SVGRepo_bgCarrier" stroke-width="0"/>
<g id="SVGRepo_tracerCarrier" stroke-linecap="round" stroke-linejoin="round"/>
<g id="SVGRepo_iconCarrier"> <path d="M20.269 5.614l-1.883-1.883a2.5 2.5 0 0 0-3.531 0l-9.562 9.562a1 1 0 0 0-.242.391l-2 6a1 1 0 0 0 1.265 1.265l6-2a1 1 0 0 0 .391-.242l9.562-9.562a2.5 2.5 0 0 0 0-3.531zM7.414 14L14 7.414 16.586 10 10 16.586zm-.977 1.851l1.712 1.712-2.568.856zm12.417-8.12L18 8.586 15.414 6l.854-.854a.5.5 0 0 1 .7 0l1.883 1.883a.5.5 0 0 1 .003.702z"/> </g>
</svg>